<svg fill="none" xmlns="http://www.w3.org/2000/svg" viewBox="0 0 156 35"><path fill-rule="evenodd" clip-rule="evenodd" d="M126.632 2.852a2.848 2.848 0 0 1-2.844 2.852 2.849 2.849 0 0 1-2.845-2.852A2.849 2.849 0 0 1 123.788 0a2.848 2.848 0 0 1 2.844 2.852ZM0 21.627C0 29.012 5.972 35 13.337 35c7.348 0 13.309-5.96 13.337-13.32C26.702 29.04 32.663 35 40.011 35c7.365 0 13.337-5.988 13.337-13.373 0-7.386-5.972-13.373-13.337-13.373-7.348 0-13.309 5.96-13.337 13.32-.028-7.36-5.989-13.32-13.337-13.32C5.972 8.254 0 14.24 0 21.627Zm66.71 0C66.71 29.012 72.68 35 80.047 35c7.365 0 13.337-5.988 13.337-13.373 0-7.386-5.972-13.373-13.337-13.373-7.366 0-13.337 5.987-13.337 13.373Zm4.558-.02c0-4.853 3.938-8.782 8.779-8.782 4.841.019 8.76 3.948 8.76 8.783 0 4.854-3.919 8.783-8.76 8.783a8.77 8.77 0 0 1-8.779-8.783Zm58.058.02c0 7.385 5.972 13.373 13.337 13.373 7.366-.019 13.319-5.988 13.337-13.373 0-7.385-5.971-13.373-13.337-13.373-7.365 0-13.337 5.988-13.337 13.373Zm4.578-.019c0-4.854 3.918-8.783 8.759-8.783 4.842.019 8.76 3.948 8.76 8.783 0 4.854-3.918 8.783-8.76 8.783-4.841 0-8.759-3.928-8.759-8.783Zm-34.85 13.246 6.875-9.425 6.82 9.425h5.839l-9.72-13.373 9.475-12.976h-5.67l-6.612 9.066-6.574-9.066h-5.84l9.457 13.07-9.72 13.279h5.67ZM121.3 8.524h4.992v26.349h-4.992V8.523Z" fill="rgb(47, 46, 46)"></path></svg>
