<?xml version="1.0" encoding="UTF-8" standalone="no"?>
<!-- Created with Inkscape (http://www.inkscape.org/) -->

<svg
   width="309.27866mm"
   height="54.00795mm"
   viewBox="0 0 309.27866 54.00795"
   version="1.1"
   id="svg5"
   xml:space="preserve"
   inkscape:version="1.2 (dc2aedaf03, 2022-05-15)"
   sodipodi:docname="Rogers Communications (2015).svg"
   xmlns:inkscape="http://www.inkscape.org/namespaces/inkscape"
   xmlns:sodipodi="http://sodipodi.sourceforge.net/DTD/sodipodi-0.dtd"
   xmlns="http://www.w3.org/2000/svg"
   xmlns:svg="http://www.w3.org/2000/svg"><sodipodi:namedview
     id="namedview7"
     pagecolor="#ffffff"
     bordercolor="#000000"
     borderopacity="0.25"
     inkscape:showpageshadow="2"
     inkscape:pageopacity="0.0"
     inkscape:pagecheckerboard="0"
     inkscape:deskcolor="#d1d1d1"
     inkscape:document-units="mm"
     showgrid="false"
     inkscape:zoom="1.3249068"
     inkscape:cx="568.71923"
     inkscape:cy="68.684074"
     inkscape:window-width="1920"
     inkscape:window-height="1009"
     inkscape:window-x="-8"
     inkscape:window-y="-8"
     inkscape:window-maximized="1"
     inkscape:current-layer="layer1" /><defs
     id="defs2"><clipPath
       clipPathUnits="userSpaceOnUse"
       id="clipPath23"><path
         d="M 0,0 H 612 V 792 H 0 Z"
         id="path21" /></clipPath></defs><g
     inkscape:label="Layer 1"
     inkscape:groupmode="layer"
     id="layer1"
     transform="translate(-54.143914,-80.20175)"><path
       d="m 356.57777,127.53037 h -0.63004 v -3.95732 h -1.4478 v -0.55784 h 3.53104 v 0.55784 h -1.4532 z"
       style="fill:#ee2722;fill-opacity:1;fill-rule:nonzero;stroke:none;stroke-width:2.68111"
       id="path31" /><path
       d="m 362.43684,123.0143 -1.32985,3.46932 h -0.0152 l -1.34322,-3.46932 h -0.9893 v 4.51501 h 0.61408 v -3.76968 h 0.0152 l 1.48535,3.76968 h 0.41268 l 1.49074,-3.76968 h 0.0152 v 3.76968 h 0.63004 v -4.51501 z"
       style="fill:#ee2722;fill-opacity:1;fill-rule:nonzero;stroke:none;stroke-width:2.68111"
       id="path35" /><path
       d="m 108.15492,107.17103 c 0,12.22856 -7.35428,19.60694 -15.236749,19.60694 -5.512364,0 -9.043384,-1.9706 -10.201624,-3.0055 9.196205,-3.66236 19.606963,-14.05977 19.606963,-26.368729 0,-3.9064 -1.20114,-7.292579 -2.2575,-9.469675 4.80992,4.734875 8.08891,11.507311 8.08891,19.236964 M 61.878951,88.287998 c 2.177058,-1.05374 5.560623,-2.254844 9.467,-2.254844 12.308983,0 22.70633,10.408047 26.368724,19.601616 1.03759,-1.15292 3.005525,-4.68388 3.005525,-10.198973 0,-7.882415 -7.378413,-15.234047 -19.606965,-15.234047 -7.72964,0 -14.504805,3.276284 -19.234284,8.086248 m 0.351196,38.189692 c -1.05368,-2.17702 -2.254822,-5.56593 -2.254822,-9.46701 0,-12.31162 10.410761,-22.706295 19.606966,-26.368658 -1.158239,-1.040288 -4.68926,-3.005572 -10.201624,-3.005572 -7.882469,0 -15.236753,7.375723 -15.236753,19.60694 0,7.72699 3.276314,14.50482 8.086233,19.2343 m 38.189743,-0.35416 c -2.17706,1.05633 -5.563309,2.25477 -9.467003,2.25477 -12.308983,0 -22.709013,-10.41071 -26.368732,-19.60427 -1.03759,1.15558 -3.005518,4.68927 -3.005518,10.19897 0,7.88515 7.378414,15.2367 19.604283,15.2367 7.732323,0 14.507488,-3.27894 19.23697,-8.08617"
       style="fill:#ee2722;fill-opacity:1;fill-rule:nonzero;stroke:none;stroke-width:2.68111"
       id="path47" /><path
       d="m 161.17121,107.23753 c 0,-12.349161 7.17465,-20.867088 18.97154,-20.867088 11.79957,0 18.97422,8.579563 18.97422,20.867088 0,12.46986 -7.35696,20.80546 -18.97422,20.80546 -11.73522,0 -18.97154,-8.3356 -18.97154,-20.80546 m 30.20003,0 c 0,-9.016561 -3.66776,-14.630833 -11.22849,-14.630833 -7.3811,0 -11.22849,5.370312 -11.22849,14.630833 0,9.19623 3.84739,14.56913 11.22849,14.56913 7.32479,0 11.22849,-5.3729 11.22849,-14.56913"
       style="fill:#ee2722;fill-opacity:1;fill-rule:nonzero;stroke:none;stroke-width:2.68111"
       id="path51" /><path
       d="M 251.79733,86.880706 V 127.529 h 25.08183 v -6.04321 h -17.68194 v -11.66015 h 15.58259 v -6.04322 H 259.19722 V 92.926581 h 15.64696 l 1.97326,-6.045875 z"
       style="fill:#ee2722;fill-opacity:1;fill-rule:nonzero;stroke:none;stroke-width:2.68111"
       id="path55" /><path
       d="m 228.48372,105.59434 -1.91702,5.87161 h 6.19605 v 9.1051 c -1.57381,0.74024 -3.23874,1.23599 -5.90109,1.23599 -8.59029,0 -12.85594,-5.74294 -12.85594,-14.51289 0,-8.638537 4.32464,-14.687149 13.11335,-14.687149 3.22536,0 6.49359,1.034968 9.21226,2.74284 l 2.02958,-6.238991 c -3.19587,-1.664932 -7.44009,-2.740104 -11.78615,-2.740104 -12.41622,0 -20.31477,9.075615 -20.31477,21.422124 0,11.67086 6.98966,20.25042 20.05743,20.25042 5.56328,0 10.1346,-1.4237 13.76482,-3.27096 v -19.17799 h -0.003 z"
       style="fill:#ee2722;fill-opacity:1;fill-rule:nonzero;stroke:none;stroke-width:2.68111"
       id="path67" /><path
       d="m 126.96613,86.880934 h 12.24732 c 11.22045,0 14.72198,6.962815 14.72198,12.392103 0,7.614363 -5.76439,10.526003 -7.42936,11.148063 v 0.25764 c 0.79629,0.23028 2.49879,1.03215 4.70535,4.99487 l 6.72154,11.85585 h -8.31948 l -5.80461,-10.27133 c -2.33792,-4.19862 -3.28704,-5.55795 -7.02451,-5.55795 h -2.59532 v 15.82928 h -7.22291 z m 12.05696,18.767746 c 6.21749,0 7.50175,-3.88755 7.50175,-6.418583 0,-2.160908 -1.11535,-6.297892 -7.50175,-6.297892 h -4.83405 v 12.716475 z"
       style="fill:#ee2722;fill-opacity:1;fill-rule:nonzero;stroke:none;stroke-width:2.68111"
       id="path71" /><path
       d="m 287.3135,86.880934 h 12.24466 c 11.21775,0 14.7193,6.962815 14.7193,12.392103 0,7.614363 -5.76445,10.526003 -7.42672,11.148063 v 0.25764 c 0.79633,0.23028 2.49881,1.03215 4.70539,4.99487 l 6.72152,11.85585 h -8.3195 l -5.80731,-10.27133 c -2.33525,-4.19862 -3.28434,-5.55795 -7.02179,-5.55795 h -2.59532 v 15.82928 h -7.22023 z m 12.05428,18.767746 c 6.21749,0 7.49907,-3.88755 7.49907,-6.418583 0,-2.160908 -1.11264,-6.297892 -7.49907,-6.297892 h -4.83405 v 12.716475 z"
       style="fill:#ee2722;fill-opacity:1;fill-rule:nonzero;stroke:none;stroke-width:2.68111"
       id="path75" /><path
       d="m 331.35018,97.179921 c 0,-3.214648 3.05109,-4.590096 6.45612,-4.590096 4.56593,0 8.09423,1.514832 8.80475,1.78562 v -6.793867 c -0.56848,-0.17404 -3.70264,-1.219952 -9.49916,-1.219952 -8.8825,0 -13.65492,5.241568 -13.65492,11.223147 0,5.968127 4.84211,9.040737 8.87178,11.188267 0.91968,0.49096 2.03764,1.08315 2.91438,1.55237 3.34065,1.77757 5.79393,3.17445 5.79393,6.26309 0,3.51492 -3.39431,5.17985 -6.78323,5.17985 -5.79386,0 -9.30612,-2.11538 -9.90401,-2.44248 l -1.95989,6.0084 c 0.5738,0.34352 5.19057,2.6999 12.00063,2.6999 8.32481,0 14.54503,-4.87699 14.54503,-12.09448 0,-5.12096 -3.48544,-8.36776 -9.215,-11.41619 -1.00274,-0.53352 -1.76145,-0.93837 -2.70788,-1.44248 -3.1879,-1.69708 -5.66253,-3.03499 -5.66253,-5.901099"
       style="fill:#ee2722;fill-opacity:1;fill-rule:nonzero;stroke:none;stroke-width:2.68111"
       id="path79" /></g></svg>
